<svg width="41" height="41" viewBox="0 0 41 41" fill="none" xmlns="http://www.w3.org/2000/svg">
<circle cx="20.3117" cy="20.1242" r="20.0152" fill="#C1B228"/>
<path d="M16.1789 17.0237C16.4527 17.0237 16.7153 17.1324 16.9088 17.3259C17.1025 17.5196 17.2112 17.7821 17.2112 18.0559C17.2112 18.4247 17.408 18.7654 17.7273 18.9497C18.0466 19.1342 18.4401 19.1342 18.7594 18.9497C19.0789 18.7654 19.2756 18.4246 19.2756 18.0559C19.2756 16.9496 18.6854 15.9274 17.7272 15.3742C16.7691 14.8211 15.5886 14.8211 14.6307 15.3742C13.6725 15.9274 13.0823 16.9496 13.0823 18.0559C13.0823 18.4247 13.279 18.7654 13.5983 18.9497C13.9178 19.1342 14.3113 19.1342 14.6306 18.9497C14.9499 18.7654 15.1467 18.4246 15.1467 18.0559C15.1467 17.7821 15.2554 17.5196 15.4491 17.3259C15.6426 17.1324 15.9052 17.0237 16.1788 17.0237H16.1789Z" fill="white"/>
<path d="M24.4365 14.9594C23.6152 14.9594 22.8275 15.2855 22.2468 15.8664C21.6661 16.4471 21.3397 17.2348 21.3397 18.056C21.3397 18.4248 21.5365 18.7655 21.856 18.9498C22.1753 19.1343 22.5688 19.1343 22.8881 18.9498C23.2074 18.7655 23.4041 18.4247 23.4041 18.056C23.4041 17.6871 23.6009 17.3464 23.9202 17.1621C24.2397 16.9778 24.6332 16.9778 24.9525 17.1621C25.2718 17.3464 25.4685 17.6872 25.4685 18.056C25.4685 18.4248 25.6653 18.7655 25.9846 18.9498C26.3039 19.1343 26.6974 19.1343 27.0169 18.9498C27.3362 18.7655 27.5329 18.4247 27.5329 18.056C27.5329 17.2348 27.2066 16.4471 26.6259 15.8664C26.0452 15.2856 25.2575 14.9594 24.4363 14.9594H24.4365Z" fill="white"/>
<path d="M20.3078 7.73398C17.0228 7.73398 13.8722 9.03897 11.5493 11.3619C9.22638 13.6848 7.92139 16.8353 7.92139 20.1204C7.92139 23.4054 9.22638 26.556 11.5493 28.8789C13.8722 31.2018 17.0227 32.5068 20.3078 32.5068C23.5929 32.5068 26.7434 31.2018 29.0663 28.8789C31.3892 26.556 32.6942 23.4054 32.6942 20.1204C32.6908 16.8364 31.3847 13.688 29.0625 11.3656C26.7403 9.04312 23.5918 7.7373 20.3077 7.73389L20.3078 7.73398ZM20.3078 30.4424C17.5702 30.4424 14.945 29.3548 13.0091 27.4191C11.0733 25.4834 9.98583 22.8581 9.98583 20.1204C9.98583 17.3828 11.0734 14.7576 13.0091 12.8218C14.9448 10.8859 17.5702 9.79847 20.3078 9.79847C23.0454 9.79847 25.6706 10.8861 27.6065 12.8218C29.5423 14.7575 30.6297 17.3828 30.6297 20.1204C30.6297 21.9323 30.1527 23.7123 29.2468 25.2814C28.3408 26.8505 27.0378 28.1535 25.4687 29.0595C23.8997 29.9654 22.1196 30.4424 20.3077 30.4424L20.3078 30.4424Z" fill="white"/>
<path d="M23.7061 22.4865L23.1022 23.093C22.3487 23.8108 21.3481 24.2112 20.3076 24.2112C19.267 24.2112 18.2663 23.8108 17.5129 23.093L16.909 22.4865C16.6482 22.2257 16.2678 22.1238 15.9114 22.2192C15.555 22.3148 15.2768 22.5931 15.1812 22.9495C15.0858 23.3059 15.1876 23.6863 15.4485 23.9471L16.0549 24.551C17.1829 25.6825 18.7151 26.3182 20.3128 26.3182C21.9105 26.3182 23.4425 25.6825 24.5705 24.551L25.1769 23.9471C25.4378 23.6862 25.5398 23.3059 25.4442 22.9495C25.3487 22.5931 25.0704 22.3149 24.714 22.2192C24.3576 22.1238 23.9772 22.2257 23.7164 22.4865H23.7061Z" fill="white"/>
</svg>
