<svg width="41" height="41" viewBox="0 0 41 41" fill="none" xmlns="http://www.w3.org/2000/svg">
<circle cx="20.3119" cy="20.1242" r="20.0152" fill="#045ABF"/>
<path fill-rule="evenodd" clip-rule="evenodd" d="M21.5627 10.1011C21.4079 9.81684 21.1106 9.64001 20.7876 9.64001C20.4645 9.64001 20.167 9.81683 20.0124 10.1011L16.9122 15.7953L10.5481 16.9887C10.2304 17.0484 9.97071 17.277 9.87087 17.5847C9.77104 17.8926 9.84694 18.2306 10.0691 18.4656L14.5176 23.1781L13.6843 29.6102C13.6428 29.9312 13.7795 30.2492 14.041 30.4395C14.3024 30.6297 14.6468 30.6617 14.9387 30.5229L20.7884 27.7413L26.6381 30.5229C26.9299 30.6617 27.2743 30.6297 27.5357 30.4395C27.7972 30.2492 27.934 29.9311 27.8925 29.6102L27.0591 23.1781L31.5076 18.4656C31.7298 18.2304 31.8057 17.8925 31.7059 17.5847C31.606 17.2768 31.3463 17.0482 31.0286 16.9887L24.6645 15.7953L21.5643 10.1011H21.5627ZM20.7876 12.3718L23.3133 17.0107C23.4402 17.2441 23.6653 17.4077 23.926 17.4566L29.1108 18.4289L25.4869 22.2682C25.3046 22.4612 25.2186 22.7261 25.2528 22.9896L25.9317 28.2295L21.1663 25.9633C20.9266 25.8494 20.6486 25.8494 20.4089 25.9633L15.6435 28.2295L16.3223 22.9896C16.3564 22.7263 16.2705 22.4613 16.0883 22.2682L12.4644 18.4289L17.6492 17.4566C17.9099 17.4077 18.1349 17.2441 18.2619 17.0107L20.7876 12.3718H20.7876Z" fill="white"/>
</svg>
