<svg width="41" height="41" viewBox="0 0 41 41" fill="none" xmlns="http://www.w3.org/2000/svg">
<circle cx="20.3119" cy="20.1244" r="20.0152" fill="#D704EA"/>
<path d="M29.9895 10.2755H26.7636V9.48127C26.7636 9.04265 26.4025 8.68701 25.9571 8.68701H14.6665C14.2211 8.68701 13.86 9.04265 13.86 9.48127V10.2755H10.6341C10.1887 10.2755 9.82764 10.6312 9.82764 11.0698V15.8353C9.82764 18.0248 11.6368 19.8066 13.86 19.8066H15.2992C15.9827 20.6468 16.8711 21.3173 17.8924 21.7259V24.5748C17.1034 25.1572 16.5646 26.0091 16.3671 26.9549H13.86C13.4146 26.9549 13.0535 27.3105 13.0535 27.7491V31.7204C13.0535 32.159 13.4146 32.5147 13.86 32.5147H26.7636C27.209 32.5147 27.5701 32.159 27.5701 31.7204V27.7491C27.5701 27.3105 27.209 26.9549 26.7636 26.9549H24.254C24.0977 26.2027 23.7278 25.5027 23.1525 24.9281C23.0151 24.7985 22.8745 24.6803 22.7311 24.5748V21.7266C23.7616 21.3146 24.6371 20.6379 25.3157 19.8066H26.7636C28.9868 19.8066 30.796 18.0248 30.796 15.8353V11.0698C30.796 10.6312 30.4349 10.2755 29.9895 10.2755ZM13.86 18.2181C12.5259 18.2181 11.4406 17.1492 11.4406 15.8353V11.864H13.86V15.8353C13.86 16.1262 13.887 16.4134 13.9264 16.6978C13.9353 16.7611 13.9437 16.8241 13.9543 16.887C14.0013 17.163 14.0632 17.4354 14.1466 17.7016C14.1599 17.7444 14.1774 17.7855 14.1916 17.8279C14.2355 17.9587 14.2778 18.0902 14.3306 18.2181L13.86 18.2181ZM25.9571 30.9262H14.6665V28.5434H23.5377C23.5431 28.543 23.548 28.5434 23.5539 28.5434H25.9571L25.9571 30.9262ZM21.6947 20.4034C21.3525 20.5034 21.1183 20.8133 21.1183 21.1647V25.0008C21.1183 25.2872 21.2745 25.5508 21.5269 25.6919C21.6954 25.7859 21.8668 25.9146 22.02 26.0587C22.2799 26.3185 22.4736 26.6238 22.5926 26.9546H18.0317C18.2216 26.4284 18.5964 25.9749 19.1008 25.6894C19.351 25.5478 19.5053 25.2852 19.5053 25.0008V21.1647C19.5053 20.8142 19.2718 20.505 18.9312 20.4041C17.8787 20.0922 16.9608 19.4381 16.3433 18.5569C16.2517 18.4279 16.1788 18.2898 16.1012 18.154C16.0506 18.0653 15.9943 17.9797 15.9498 17.8884C15.8882 17.7623 15.8414 17.6308 15.7918 17.5003C15.7575 17.4108 15.7163 17.3239 15.6877 17.2324C15.6413 17.0837 15.6117 16.9305 15.5804 16.7776C15.5644 16.6998 15.5399 16.6241 15.5279 16.5454C15.492 16.3119 15.4729 16.0747 15.4729 15.8352V10.2754H25.1506V15.8352C25.1506 16.0919 25.1281 16.3451 25.0869 16.5933C25.0795 16.6388 25.0639 16.6823 25.055 16.7277C25.0149 16.9312 24.9681 17.1328 24.902 17.3276C24.8869 17.3726 24.8648 17.4152 24.8482 17.4597C24.7778 17.6483 24.7006 17.8343 24.6072 18.0121C24.5778 18.0678 24.5411 18.1201 24.5094 18.1749C23.9046 19.2234 22.9139 20.0461 21.6947 20.4034ZM29.1829 15.8353C29.1829 17.1492 28.0976 18.2181 26.7635 18.2181H26.2926C26.4733 17.7805 26.5966 17.3235 26.6737 16.856C26.6818 16.8077 26.6881 16.7595 26.6951 16.7109C26.7358 16.4223 26.7635 16.1309 26.7635 15.8353V11.864H29.1829L29.1829 15.8353Z" fill="white"/>
</svg>
